<svg width="45" height="37" viewBox="0 0 45 37" fill="none" xmlns="http://www.w3.org/2000/svg">
<path d="M3.08333 6.16667C1.38046 6.16667 0 4.78621 0 3.08333V3.08333C0 1.38046 1.38046 0 3.08334 0H41.9167C43.6195 0 45 1.38046 45 3.08333V3.08333C45 4.78621 43.6195 6.16667 41.9167 6.16667H3.08333Z" fill="#36C5BC"/>
<path d="M14.3182 18.5C14.3182 20.2029 15.6986 21.5833 17.4015 21.5833H41.9167C43.6195 21.5833 45 20.2029 45 18.5V18.5C45 16.7971 43.6195 15.4167 41.9167 15.4167H17.4015C15.6986 15.4167 14.3182 16.7971 14.3182 18.5V18.5Z" fill="#36C5BC"/>
<path d="M0 33.9167C0 35.6195 1.38046 37 3.08333 37H41.9167C43.6195 37 45 35.6195 45 33.9167V33.9167C45 32.2138 43.6195 30.8333 41.9167 30.8333H3.08333C1.38046 30.8333 0 32.2138 0 33.9167V33.9167Z" fill="#36C5BC"/>
</svg>
