<svg width="1290" height="66" viewBox="0 0 1290 66" fill="none" xmlns="http://www.w3.org/2000/svg">
<rect y="44" width="1290" height="12" rx="6" fill="#F3F3F3"/>
<rect y="44" width="370" height="12" rx="6" fill="#579AFF"/>
<path d="M7.72789 19.36C6.63456 19.36 5.70123 19.1733 4.92789 18.8C4.16789 18.4133 3.54789 17.8933 3.06789 17.24C2.60122 16.5867 2.26122 15.8333 2.04789 14.98C1.83456 14.1133 1.72789 13.2 1.72789 12.24V11.16C1.72789 9.81333 1.93456 8.6 2.34789 7.52C2.77456 6.44 3.42789 5.58667 4.30789 4.96C5.20122 4.32 6.34122 4 7.72789 4C9.11456 4 10.2479 4.32 11.1279 4.96C12.0079 5.58667 12.6546 6.44 13.0679 7.52C13.4946 8.6 13.7079 9.81333 13.7079 11.16V12.24C13.7079 13.2 13.6012 14.1133 13.3879 14.98C13.1746 15.8333 12.8279 16.5867 12.3479 17.24C11.8812 17.8933 11.2679 18.4133 10.5079 18.8C9.74789 19.1733 8.82123 19.36 7.72789 19.36ZM7.72789 17.6C9.11456 17.6 10.1279 17.1333 10.7679 16.2C11.4212 15.2533 11.7479 13.76 11.7479 11.72C11.7479 9.58667 11.4146 8.06 10.7479 7.14C10.0946 6.22 9.08789 5.76 7.72789 5.76C6.35456 5.76 5.33456 6.22 4.66789 7.14C4.01456 8.06 3.68789 9.57333 3.68789 11.68C3.68789 13.7333 4.01456 15.2333 4.66789 16.18C5.32122 17.1267 6.34122 17.6 7.72789 17.6ZM16.8112 19V16.56H19.1312V19H16.8112ZM16.8112 11.6V9.16H19.1312V11.6H16.8112ZM28.2255 19.36C27.1322 19.36 26.1989 19.1733 25.4255 18.8C24.6655 18.4133 24.0455 17.8933 23.5655 17.24C23.0989 16.5867 22.7589 15.8333 22.5455 14.98C22.3322 14.1133 22.2255 13.2 22.2255 12.24V11.16C22.2255 9.81333 22.4322 8.6 22.8455 7.52C23.2722 6.44 23.9255 5.58667 24.8055 4.96C25.6989 4.32 26.8389 4 28.2255 4C29.6122 4 30.7455 4.32 31.6255 4.96C32.5055 5.58667 33.1522 6.44 33.5655 7.52C33.9922 8.6 34.2055 9.81333 34.2055 11.16V12.24C34.2055 13.2 34.0989 14.1133 33.8855 14.98C33.6722 15.8333 33.3255 16.5867 32.8455 17.24C32.3789 17.8933 31.7655 18.4133 31.0055 18.8C30.2455 19.1733 29.3189 19.36 28.2255 19.36ZM28.2255 17.6C29.6122 17.6 30.6255 17.1333 31.2655 16.2C31.9189 15.2533 32.2455 13.76 32.2455 11.72C32.2455 9.58667 31.9122 8.06 31.2455 7.14C30.5922 6.22 29.5855 5.76 28.2255 5.76C26.8522 5.76 25.8322 6.22 25.1655 7.14C24.5122 8.06 24.1855 9.57333 24.1855 11.68C24.1855 13.7333 24.5122 15.2333 25.1655 16.18C25.8189 17.1267 26.8389 17.6 28.2255 17.6ZM43.2888 19.36C42.1955 19.36 41.2622 19.1733 40.4888 18.8C39.7288 18.4133 39.1088 17.8933 38.6288 17.24C38.1622 16.5867 37.8222 15.8333 37.6088 14.98C37.3955 14.1133 37.2888 13.2 37.2888 12.24V11.16C37.2888 9.81333 37.4955 8.6 37.9088 7.52C38.3355 6.44 38.9888 5.58667 39.8688 4.96C40.7622 4.32 41.9022 4 43.2888 4C44.6755 4 45.8088 4.32 46.6888 4.96C47.5688 5.58667 48.2155 6.44 48.6288 7.52C49.0555 8.6 49.2688 9.81333 49.2688 11.16V12.24C49.2688 13.2 49.1622 14.1133 48.9488 14.98C48.7355 15.8333 48.3888 16.5867 47.9088 17.24C47.4422 17.8933 46.8288 18.4133 46.0688 18.8C45.3088 19.1733 44.3822 19.36 43.2888 19.36ZM43.2888 17.6C44.6755 17.6 45.6888 17.1333 46.3288 16.2C46.9822 15.2533 47.3088 13.76 47.3088 11.72C47.3088 9.58667 46.9755 8.06 46.3088 7.14C45.6555 6.22 44.6488 5.76 43.2888 5.76C41.9155 5.76 40.8955 6.22 40.2288 7.14C39.5755 8.06 39.2488 9.57333 39.2488 11.68C39.2488 13.7333 39.5755 15.2333 40.2288 16.18C40.8822 17.1267 41.9022 17.6 43.2888 17.6Z" fill="#D5D5D5"/>
<path d="M335.091 19V6.04H331.851V4.4H337.011V19H335.091ZM341.069 19V16.56H343.389V19H341.069ZM341.069 11.6V9.16H343.389V11.6H341.069ZM351.023 19.36C349.93 19.36 349.003 19.1467 348.243 18.72C347.483 18.2933 346.903 17.7267 346.503 17.02C346.117 16.3133 345.923 15.5467 345.923 14.72H347.803C347.803 15.6267 348.09 16.3467 348.663 16.88C349.25 17.4133 350.037 17.68 351.023 17.68C352.01 17.68 352.79 17.4133 353.363 16.88C353.95 16.3467 354.243 15.6267 354.243 14.72C354.243 13.8133 353.95 13.08 353.363 12.52C352.79 11.96 352.017 11.68 351.043 11.68C350.63 11.68 350.27 11.7333 349.963 11.84C349.67 11.9333 349.41 12.0533 349.183 12.2L348.223 10.48L353.803 6.4L353.603 6.04H346.503V4.4H355.403V7.06L351.083 10.2H351.103C352.17 10.2 353.077 10.4 353.823 10.8C354.57 11.2 355.137 11.7333 355.523 12.4C355.923 13.0667 356.123 13.7933 356.123 14.58V14.86C356.123 15.6333 355.923 16.3667 355.523 17.06C355.137 17.74 354.563 18.2933 353.803 18.72C353.057 19.1467 352.13 19.36 351.023 19.36ZM363.849 19.36C362.729 19.36 361.782 19.1333 361.009 18.68C360.235 18.2133 359.649 17.6067 359.249 16.86C358.849 16.1133 358.649 15.32 358.649 14.48H360.529C360.529 15.4 360.829 16.1667 361.429 16.78C362.029 17.38 362.835 17.68 363.849 17.68C364.849 17.68 365.655 17.38 366.269 16.78C366.882 16.18 367.189 15.4133 367.189 14.48C367.189 13.8667 367.049 13.3133 366.769 12.82C366.502 12.3267 366.115 11.9333 365.609 11.64C365.115 11.3467 364.529 11.2 363.849 11.2C363.355 11.2 362.855 11.2867 362.349 11.46C361.842 11.62 361.435 11.8533 361.129 12.16H359.369L360.109 4.4H367.769V6.04H361.649L361.209 10.36C361.569 10.12 361.975 9.93333 362.429 9.8C362.882 9.66667 363.382 9.6 363.929 9.6C365.049 9.6 365.989 9.83333 366.749 10.3C367.509 10.7533 368.082 11.3467 368.469 12.08C368.869 12.8 369.069 13.5533 369.069 14.34V14.62C369.069 15.4067 368.869 16.1667 368.469 16.9C368.069 17.62 367.475 18.2133 366.689 18.68C365.915 19.1333 364.969 19.36 363.849 19.36Z" fill="#579AFF"/>
<path d="M1251.25 15.54V13.18L1257.31 4.04L1258.65 5.1L1252.99 13.66L1253.17 14.02H1258.87V8.66H1260.67V14.02H1262.61V15.54H1260.67V19H1258.87V15.54H1251.25ZM1264.78 19V16.56H1267.1V19H1264.78ZM1264.78 11.6V9.16H1267.1V11.6H1264.78ZM1270.27 19V16.6C1270.27 16.0133 1270.35 15.5133 1270.51 15.1C1270.69 14.6867 1270.98 14.3133 1271.39 13.98C1271.81 13.6333 1272.37 13.3 1273.07 12.98L1275.81 11.72C1276.48 11.4133 1277.01 11.02 1277.39 10.54C1277.78 10.0467 1277.97 9.41333 1277.97 8.64C1277.97 7.70667 1277.71 6.98 1277.19 6.46C1276.67 5.94 1275.94 5.68 1274.99 5.68C1274.06 5.68 1273.33 5.94 1272.79 6.46C1272.26 6.98 1271.99 7.70667 1271.99 8.64H1270.11C1270.11 7.8 1270.29 7.02667 1270.63 6.32C1270.99 5.61333 1271.53 5.05333 1272.25 4.64C1272.97 4.21333 1273.89 4 1274.99 4C1276.1 4 1277.01 4.21333 1277.71 4.64C1278.43 5.05333 1278.97 5.6 1279.31 6.28C1279.67 6.96 1279.85 7.7 1279.85 8.5V8.78C1279.85 9.83333 1279.55 10.72 1278.93 11.44C1278.33 12.16 1277.52 12.7533 1276.49 13.22L1273.75 14.48C1273.14 14.76 1272.73 15.04 1272.51 15.32C1272.3 15.6 1272.19 15.9733 1272.19 16.44V17.36H1280.03V19H1270.27ZM1285.4 19V6.04H1282.16V4.4H1287.32V19H1285.4Z" fill="#D5D5D5"/>
<g filter="url(#filter0_d)">
<circle cx="358" cy="50" r="12" fill="#579AFF"/>
</g>
<defs>
<filter id="filter0_d" x="342" y="34" width="32" height="32" filterUnits="userSpaceOnUse" color-interpolation-filters="sRGB">
<feFlood flood-opacity="0" result="BackgroundImageFix"/>
<feColorMatrix in="SourceAlpha" type="matrix" values="0 0 0 0 0 0 0 0 0 0 0 0 0 0 0 0 0 0 127 0"/>
<feOffset/>
<feGaussianBlur stdDeviation="2"/>
<feColorMatrix type="matrix" values="0 0 0 0 0 0 0 0 0 0 0 0 0 0 0 0 0 0 0.25 0"/>
<feBlend mode="normal" in2="BackgroundImageFix" result="effect1_dropShadow"/>
<feBlend mode="normal" in="SourceGraphic" in2="effect1_dropShadow" result="shape"/>
</filter>
</defs>
</svg>
