<svg width="261" height="70" viewBox="0 0 261 70" fill="none" xmlns="http://www.w3.org/2000/svg">
<line x1="45" y1="36.5" x2="103.009" y2="36.5" stroke="#579AFF" stroke-width="9"/>
<line x1="167" y1="36.5" x2="225.009" y2="36.5" stroke="#CECECE" stroke-width="9"/>
<circle cx="35" cy="35" r="34.5" fill="white" stroke="#CECECE"/>
<path d="M37.2559 45H34.5312V26.9385L29.0674 28.9453V26.4844L36.8311 23.5693H37.2559V45Z" fill="#56575C"/>
<circle cx="132" cy="35" r="34.5" fill="white" stroke="#579AFF"/>
<path d="M139.324 45H125.35V43.0518L132.732 34.8486C133.826 33.6084 134.578 32.6025 134.988 31.8311C135.408 31.0498 135.618 30.2441 135.618 29.4141C135.618 28.3008 135.281 27.3877 134.607 26.6748C133.934 25.9619 133.035 25.6055 131.912 25.6055C130.564 25.6055 129.515 25.9912 128.763 26.7627C128.021 27.5244 127.649 28.5889 127.649 29.9561H124.939C124.939 27.9932 125.569 26.4062 126.829 25.1953C128.099 23.9844 129.793 23.3789 131.912 23.3789C133.895 23.3789 135.462 23.9014 136.614 24.9463C137.767 25.9814 138.343 27.3633 138.343 29.0918C138.343 31.1914 137.005 33.6914 134.329 36.5918L128.616 42.7881H139.324V45Z" fill="#56575C"/>
<circle cx="226" cy="35" r="34.5" fill="white" stroke="#CECECE"/>
<path d="M223.29 33.0176H225.326C226.605 32.998 227.611 32.6611 228.344 32.0068C229.076 31.3525 229.442 30.4688 229.442 29.3555C229.442 26.8555 228.197 25.6055 225.707 25.6055C224.535 25.6055 223.598 25.9424 222.895 26.6162C222.201 27.2803 221.854 28.1641 221.854 29.2676H219.145C219.145 27.5781 219.76 26.1768 220.99 25.0635C222.23 23.9404 223.803 23.3789 225.707 23.3789C227.719 23.3789 229.296 23.9111 230.438 24.9756C231.581 26.04 232.152 27.5195 232.152 29.4141C232.152 30.3418 231.85 31.2402 231.244 32.1094C230.648 32.9785 229.833 33.6279 228.798 34.0576C229.97 34.4287 230.873 35.0439 231.508 35.9033C232.152 36.7627 232.475 37.8125 232.475 39.0527C232.475 40.9668 231.85 42.4854 230.6 43.6084C229.35 44.7314 227.724 45.293 225.722 45.293C223.72 45.293 222.089 44.751 220.829 43.667C219.579 42.583 218.954 41.1523 218.954 39.375H221.679C221.679 40.498 222.045 41.3965 222.777 42.0703C223.51 42.7441 224.491 43.0811 225.722 43.0811C227.03 43.0811 228.031 42.7393 228.725 42.0557C229.418 41.3721 229.765 40.3906 229.765 39.1113C229.765 37.8711 229.384 36.9189 228.622 36.2549C227.86 35.5908 226.762 35.249 225.326 35.2295H223.29V33.0176Z" fill="#56575C"/>
</svg>
